<?xml version="1.0" encoding="iso-8859-1"?>
<!-- Generator: Adobe Illustrator 18.0.0, SVG Export Plug-In . SVG Version: 6.00 Build 0)  -->
<!DOCTYPE svg PUBLIC "-//W3C//DTD SVG 1.1//EN" "http://www.w3.org/Graphics/SVG/1.1/DTD/svg11.dtd">
<svg version="1.1" id="Capa_1" xmlns="http://www.w3.org/2000/svg" xmlns:xlink="http://www.w3.org/1999/xlink" x="0px" y="0px"
	 viewBox="0 0 209.811 209.811" style="enable-background:new 0 0 209.811 209.811;" xml:space="preserve">
<g>
	<path d="M209.766,181.682L191.382,26.599c-0.388-3.271-3.161-5.735-6.455-5.735h-43.671c-0.062-0.001-0.124-0.001-0.184,0H6.5
		c-3.59,0-6.5,2.91-6.5,6.5v155.083c0,3.59,2.91,6.5,6.5,6.5h133.542c3.59,0,6.5-2.91,6.5-6.5V128.02l6.542,55.192
		c0.388,3.271,3.161,5.735,6.455,5.735h43.771c1.857,0,3.625-0.794,4.859-2.183C209.404,185.376,209.984,183.526,209.766,181.682z
		 M193.056,151.153h-30.681l-10.964-92.495h30.014c0.226,0,0.443-0.031,0.659-0.066L193.056,151.153z M133.542,151.153h-30.771
		V58.658h30.771V151.153z M57.885,151.153V58.658h31.886v92.495H57.885z M89.771,159.153v16.794H57.885v-16.794H89.771z M13,58.658
		h31.885v92.495H13V58.658z M57.885,50.658V33.864h31.886v16.794H57.885z M179.153,33.864l1.991,16.794h-30.68l-1.991-16.794
		H179.153z M133.542,50.658h-30.771V33.864h30.771V50.658z M44.885,33.864v16.794H13V33.864H44.885z M13,159.153h31.885v16.794H13
		V159.153z M102.771,175.947v-16.794h30.771v16.794H102.771z M165.314,175.947l-1.991-16.794h30.681l1.991,16.794H165.314z"/>
</g>
<g>
</g>
<g>
</g>
<g>
</g>
<g>
</g>
<g>
</g>
<g>
</g>
<g>
</g>
<g>
</g>
<g>
</g>
<g>
</g>
<g>
</g>
<g>
</g>
<g>
</g>
<g>
</g>
<g>
</g>
</svg>
