<?xml version="1.0" encoding="iso-8859-1"?>
<!-- Generator: Adobe Illustrator 18.0.0, SVG Export Plug-In . SVG Version: 6.00 Build 0)  -->
<!DOCTYPE svg PUBLIC "-//W3C//DTD SVG 1.1//EN" "http://www.w3.org/Graphics/SVG/1.1/DTD/svg11.dtd">
<svg version="1.1" id="Capa_1" xmlns="http://www.w3.org/2000/svg" xmlns:xlink="http://www.w3.org/1999/xlink" x="0px" y="0px"
	 viewBox="0 0 56 56" style="enable-background:new 0 0 56 56;" xml:space="preserve">
<g>
	<path d="M47.91,47.496l6.484-3.242l-17.638-6.498l6.498,17.638l3.242-6.484l6.797,6.797C53.488,55.902,53.744,56,54,56
		s0.512-0.098,0.707-0.293c0.391-0.391,0.391-1.023,0-1.414L47.91,47.496z M40.131,41.131l9.233,3.402l-3.888,1.943l-1.943,3.888
		L40.131,41.131z"/>
	<path d="M42.824,0H13.176C6.462,0,1,5.462,1,12.176v29.648C1,48.538,6.462,54,13.176,54h26.367L35.49,43H28c-0.552,0-1-0.447-1-1
		s0.448-1,1-1h6.754l-3.06-8.307L55,41.28V12.176C55,5.462,49.538,0,42.824,0z M21.688,37.65l-6.857,7.999
		c-0.197,0.23-0.477,0.35-0.76,0.35c-0.209,0-0.42-0.065-0.6-0.2L8.9,42.37c-0.442-0.331-0.531-0.958-0.2-1.399
		c0.332-0.442,0.958-0.53,1.4-0.2l3.822,2.866l6.248-7.287c0.359-0.42,0.992-0.468,1.41-0.108
		C21.999,36.601,22.047,37.231,21.688,37.65z M21.688,22.65l-6.857,8c-0.197,0.23-0.477,0.35-0.76,0.35c-0.209,0-0.42-0.065-0.6-0.2
		L8.9,27.371c-0.442-0.331-0.531-0.958-0.2-1.399c0.332-0.442,0.958-0.531,1.4-0.2l3.822,2.866l6.248-7.288
		c0.359-0.42,0.992-0.468,1.41-0.108C21.999,21.601,22.047,22.231,21.688,22.65z M21.688,8.65l-6.857,8
		c-0.197,0.23-0.477,0.35-0.76,0.35c-0.209,0-0.42-0.065-0.6-0.2L8.9,13.371c-0.442-0.331-0.531-0.958-0.2-1.399
		c0.332-0.442,0.958-0.531,1.4-0.2l3.822,2.866l6.248-7.288c0.359-0.42,0.992-0.468,1.41-0.108
		C21.999,7.601,22.047,8.231,21.688,8.65z M46,28H28c-0.552,0-1-0.447-1-1s0.448-1,1-1h18c0.552,0,1,0.447,1,1S46.552,28,46,28z
		 M46,14H28c-0.552,0-1-0.447-1-1s0.448-1,1-1h18c0.552,0,1,0.447,1,1S46.552,14,46,14z"/>
</g>
<g>
</g>
<g>
</g>
<g>
</g>
<g>
</g>
<g>
</g>
<g>
</g>
<g>
</g>
<g>
</g>
<g>
</g>
<g>
</g>
<g>
</g>
<g>
</g>
<g>
</g>
<g>
</g>
<g>
</g>
</svg>
